<svg
    xmlns="http://www.w3.org/2000/svg"
    width="256"
    height="256"
    class="svg-icon"
>

    <symbol id="user-plus" viewBox="0 0 24 24">
        <path d="M12 12.75C8.83 12.75 6.25 10.17 6.25 7C6.25 3.83 8.83 1.25 12 1.25C15.17 1.25 17.75 3.83 17.75 7C17.75 10.17 15.17 12.75 12 12.75ZM12 2.75C9.66 2.75 7.75 4.66 7.75 7C7.75 9.34 9.66 11.25 12 11.25C14.34 11.25 16.25 9.34 16.25 7C16.25 4.66 14.34 2.75 12 2.75Z"/>
        <path d="M3.41016 22.75C3.00016 22.75 2.66016 22.41 2.66016 22C2.66016 17.73 6.85015 14.25 12.0002 14.25C13.0102 14.25 14.0001 14.38 14.9601 14.65C15.3601 14.76 15.5902 15.17 15.4802 15.57C15.3702 15.97 14.9601 16.2 14.5602 16.09C13.7402 15.86 12.8802 15.75 12.0002 15.75C7.68015 15.75 4.16016 18.55 4.16016 22C4.16016 22.41 3.82016 22.75 3.41016 22.75Z"/>
        <path d="M18 22.75C16.82 22.75 15.7 22.31 14.83 21.52C14.48 21.22 14.17 20.85 13.93 20.44C13.49 19.72 13.25 18.87 13.25 18C13.25 16.75 13.73 15.58 14.59 14.69C15.49 13.76 16.7 13.25 18 13.25C19.36 13.25 20.65 13.83 21.53 14.83C22.31 15.7 22.75 16.82 22.75 18C22.75 18.38 22.7 18.76 22.6 19.12C22.5 19.57 22.31 20.04 22.05 20.45C21.22 21.87 19.66 22.75 18 22.75ZM18 14.75C17.11 14.75 16.29 15.1 15.67 15.73C15.08 16.34 14.75 17.14 14.75 18C14.75 18.59 14.91 19.17 15.22 19.67C15.38 19.95 15.59 20.2 15.83 20.41C16.43 20.96 17.2 21.26 18 21.26C19.13 21.26 20.2 20.66 20.78 19.69C20.95 19.41 21.08 19.09 21.15 18.78C21.22 18.52 21.25 18.27 21.25 18.01C21.25 17.21 20.95 16.44 20.41 15.84C19.81 15.14 18.93 14.75 18 14.75Z"/>
        <path d="M19.4998 18.7305H16.5098C16.0998 18.7305 15.7598 18.3905 15.7598 17.9805C15.7598 17.5705 16.0998 17.2305 16.5098 17.2305H19.4998C19.9098 17.2305 20.2498 17.5705 20.2498 17.9805C20.2498 18.3905 19.9098 18.7305 19.4998 18.7305Z"/>
        <path d="M18 20.2595C17.59 20.2595 17.25 19.9195 17.25 19.5095V16.5195C17.25 16.1095 17.59 15.7695 18 15.7695C18.41 15.7695 18.75 16.1095 18.75 16.5195V19.5095C18.75 19.9295 18.41 20.2595 18 20.2595Z"/>
    </symbol>

    <symbol id="user_filled-plus" viewBox="0 0 24 24">
        <path opacity="0.4" d="M21.09 21.5C21.09 21.78 20.87 22 20.59 22H3.41003C3.13003 22 2.91003 21.78 2.91003 21.5C2.91003 17.36 6.99003 14 12 14C13.03 14 14.03 14.14 14.95 14.41C14.36 15.11 14 16.02 14 17C14 17.75 14.21 18.46 14.58 19.06C14.78 19.4 15.04 19.71 15.34 19.97C16.04 20.61 16.97 21 18 21C19.12 21 20.13 20.54 20.85 19.8C21.01 20.34 21.09 20.91 21.09 21.5Z"/>
        <path d="M20.97 14.33C20.25 13.51 19.18 13 18 13C16.88 13 15.86 13.46 15.13 14.21C14.43 14.93 14 15.92 14 17C14 17.75 14.21 18.46 14.58 19.06C14.78 19.4 15.04 19.71 15.34 19.97C16.04 20.61 16.97 21 18 21C19.46 21 20.73 20.22 21.42 19.06C21.63 18.72 21.79 18.33 21.88 17.93C21.96 17.63 22 17.32 22 17C22 15.98 21.61 15.04 20.97 14.33ZM19.5 17.73H18.75V18.51C18.75 18.92 18.41 19.26 18 19.26C17.59 19.26 17.25 18.92 17.25 18.51V17.73H16.5C16.09 17.73 15.75 17.39 15.75 16.98C15.75 16.57 16.09 16.23 16.5 16.23H17.25V15.52C17.25 15.11 17.59 14.77 18 14.77C18.41 14.77 18.75 15.11 18.75 15.52V16.23H19.5C19.91 16.23 20.25 16.57 20.25 16.98C20.25 17.39 19.91 17.73 19.5 17.73Z"/>
        <path d="M12 12C14.7614 12 17 9.76142 17 7C17 4.23858 14.7614 2 12 2C9.23858 2 7 4.23858 7 7C7 9.76142 9.23858 12 12 12Z"/>
    </symbol>


    <symbol id="user_filled-ok" viewBox="0 0 24 24">
        <path d="M18 13C17.06 13 16.19 13.33 15.5 13.88C14.58 14.61 14 15.74 14 17C14 17.75 14.21 18.46 14.58 19.06C15.27 20.22 16.54 21 18 21C19.01 21 19.93 20.63 20.63 20C20.94 19.74 21.21 19.42 21.42 19.06C21.79 18.46 22 17.75 22 17C22 14.79 20.21 13 18 13ZM20.07 16.57L17.94 18.54C17.8 18.67 17.61 18.74 17.43 18.74C17.24 18.74 17.05 18.67 16.9 18.52L15.91 17.53C15.62 17.24 15.62 16.76 15.91 16.47C16.2 16.18 16.68 16.18 16.97 16.47L17.45 16.95L19.05 15.47C19.35 15.19 19.83 15.21 20.11 15.51C20.39 15.81 20.37 16.28 20.07 16.57Z"/>
        <path opacity="0.4" d="M21.09 21.5C21.09 21.78 20.87 22 20.59 22H3.41003C3.13003 22 2.91003 21.78 2.91003 21.5C2.91003 17.36 6.99003 14 12 14C13.03 14 14.03 14.14 14.95 14.41C14.36 15.11 14 16.02 14 17C14 17.75 14.21 18.46 14.58 19.06C14.78 19.4 15.04 19.71 15.34 19.97C16.04 20.61 16.97 21 18 21C19.12 21 20.13 20.54 20.85 19.8C21.01 20.34 21.09 20.91 21.09 21.5Z"/>
        <path d="M12 12C14.7614 12 17 9.76142 17 7C17 4.23858 14.7614 2 12 2C9.23858 2 7 4.23858 7 7C7 9.76142 9.23858 12 12 12Z"/>
    </symbol>


</svg>
